<svg class="logo" data-name="Layer 1" xmlns="http://www.w3.org/2000/svg" viewBox="0 0 752.82 655.64"><path d="M484.34,129.85c-63.89,5.42-120.5,18.73-170.66,39.75q-183.55,77.43-278,266C23.61,459.74,13.41,487,15.29,490.13c.62.83,0,1.66-1.25,1.66-1.46,0-1.87,1.46-1.25,3.33.83,1.88.42,2.71-1,1.67-1.67-.83-1.87.21-.83,3.33,1,3.33.83,4.16-1,3.12s-2.08-.21-1,3.12c1,3.12.83,4.16-.84,3.33C6,508.24,5.42,509.07,5,515.1c-.21,1.46-1,3.33-2.08,4C.84,520.76-.83,539.28.84,544.49c.62,1.87,2.08,3.12,3.12,2.49,2.29-1.45,2.29,1.25,0,12.91-1,5-1,9-.41,9,.83,0,1.24,3.53.83,7.7-.83,9.78-.21,8.53,11.86-30.6,45.42-147,138.65-266.69,256.84-330.16C318.87,191,363.4,175,413.35,165c46.62-9.37,70.76-11.45,131.32-11.24,60.35,0,89.9,2.7,148.59,13.52,18.32,3.33,33.72,5.62,34.13,5,.63-.62.63-1,0-1s-12.69-2.29-26.84-5.2-35.17-6.66-46.62-8.54c-11.24-1.66-21.23-3.95-21.85-5.2-.84-1-9-2.5-18.32-3.33-9.36-.62-16.44-2.08-15.81-3.12,1.66-2.71-2.71-3.54-28.31-5.62l-23.93-2.08,31.22,1c22.27.83,30.59.62,29.13-1-1.25-1.25-10-3.33-19.35-4.79-9.37-1.25-17.07-3.12-17.07-4.16C569.66,127.12,511.39,127.53,484.34,129.85ZM5.08,536.69c-1.25,4.16-2.71,6.66-2.91,5.62-.84-2.29,2.91-13.12,4.37-13.12C6.92,529.19,6.3,532.52,5.08,536.69Z" transform="translate(9.07 -0.01)" fill="#211E48"/><path d="M434.18,190.59c-4,2.5-9.57,9.37-12.69,15-3.54,6.66-8.12,11.44-13.12,13.94-4.16,2.29-8.11,5.41-8.74,7.29-1.87,4.57,6.66,11,14.57,11s22.69,13.73,17.9,16.85c-16.23,10.82-28.51,17.07-39.54,20.61-7.29,2.08-19.77,7.9-27.47,12.48-16.86,10.2-22.48,10-16-.41,7.7-12.91,4.16-28.93-9-40.59-14.15-12.27-31.63-11.65-46.2,1.67-7.91,7.28-10,8.12-19.35,8.12-5.83,0-11.24,1-11.86,2.08-2.29,3.53,4.57,11.86,13.94,17.48,5,2.91,10.61,7.91,12.69,11.44,5.62,9.37,20.19,15.61,33.72,14.16,15-1.46,17.9,1.87,9.16,10.19-3.54,3.33-11.24,12.28-16.86,20-9.78,13.11-11,14.15-18.52,14.15-5.62,0-8.12-1-9-3.74-2.5-7.29-18.94-21.23-26.85-22.69C245,317.13,222,329,222,339.81c0,3.33,2.5,5.41,9.37,8.53,9.36,4.17,9.57,4.17,15.19.21,3.12-2.08,6.66-4.58,8.12-5.41s5.2,1.67,9.15,6c3.75,3.95,8.54,7.28,10.83,7.28,5.61,0,20.18,4.58,20.18,6.24,0,.84-3.12,8.33-7.07,16.86s-10,25.18-13.74,37.25c-3.54,12.07-7.28,23.31-7.91,25.39-.83,1.88-29.55,34.55-63.68,72.84-61,67.85-62.64,69.51-83.66,82.83C76,624.68,62.42,639.45,80.53,639.45c9.15,0,23.1-5.2,54.73-20.39l28.93-13.74-1-6.66c-1-6,.62-8.94,15.81-27.26,21.65-26.43,82.21-86.57,97.82-97.4,6.66-4.57,16.65-11.86,22.26-16.23,7.08-5.2,10.83-7.07,11.24-5.2,1.67,5,3.54,21.85,6.25,56.81l2.91,34.76,6.87,7.07c3.74,4,17.48,14.36,30.38,23.11s23.52,16.85,23.52,17.68c0,1-3.33,8.33-7.28,16.24-5.62,11-10,16.44-18.73,23.1-6.25,4.79-11.45,9.36-11.45,10.2,0,4,15.61,6.45,34.75,6a308.23,308.23,0,0,1,35.18,1c13.94,1.67,15,1.46,17.89-2.7,3.33-4.79,2.71-11.24-2.29-23.73-3.33-8.74-2.91-10.61,3.75-14.57l6-3.53L435,595.68c-2.91-7.28-2.91-8.74,0-12.9,7.08-10.82,72.84-87.41,76-88.45,4.17-1.67,12.7,8.12,33.09,38.5,21.23,31.63,26.44,35.8,58.07,46.2,31,10.41,35.17,13.32,35,24.35-.41,10-8.32,28.93-14.15,32.88-2.29,1.67-8.12,3.12-12.9,3.12-5.21,0-9.78,1.25-11.24,3.33-4.79,5.62,1.87,9.37,21,11.66,17.27,2.08,17.27,2.08,21.64-3.33,4.58-5.83,28.1-51.82,28.1-54.94,0-1.25-3.12-4-6.66-6.45-3.75-2.29-8.12-6-9.58-8.33-1.24-2.5-5.82-5.83-10-7.49-8.54-3.54-32.89-21-39.55-28.51-6.24-6.66-7.9-31-5.2-71.39,2.91-41.83,6.87-61,16.86-81.78l8.11-17.28,7.7,8.53c8.75,9.79,13.53,10.41,18.94,2.92l4-5.41,10,6.24c5.41,3.54,11.23,5.83,12.9,5.2,4.58-1.66,6.87-13.73,10.2-56.81,4.16-53.9,4.37-51.61-2.5-54.32L679,279.14l12.49-7.28c6.87-4,16.23-8.12,20.81-9.16,18.94-4.79,28.1-13.32,31-28.93,4.16-22.89-18.31-43.49-41.21-37.46-10,2.71-21.64,13.74-23.31,22.27-1,4.58-2.28,6-6,6-5.83,0-22.89,9.16-22.69,12.07.42,3.75,10,7.29,20,7.29,7.91,0,10.83,1,15.2,5.62,2.91,3.12,5.2,6.45,5.2,7.28,0,3.12-30.39,21.65-39.54,24.35-13.32,3.75-30.6,13.32-42.46,23.73-10.4,8.74-10.4,8.74-28.09,8.94-10.83.21-21.65,1.67-27.27,3.75-9.36,3.54-22.89,11.66-22.89,13.94,0,.63,6,6,13.53,11.87l13.53,10.82,8.32-5.41c4.58-3.12,9-5,9.57-4.37s-2.49,6.66-7.28,13.53c-13.74,20.39-37,62.22-43.08,77.62-3.12,7.91-6.45,14.36-7.28,14.36-1,0-4.17-4.37-7.29-10-3.12-5.41-8.32-13.73-11.65-18.52-6.45-9.78-6-13.74,2.08-20.81,4.79-4,5-5.2,2.91-9.78-2.08-4.79-1.66-5.41,5-9.37,3.74-2.29,7.07-5,7.07-6,0-3.75-8.11-9-27.88-17.9-11.24-5-21.23-10-22.06-10.82-1-1-7.29-17.28-14.16-35.8-6.86-18.73-14.56-36.21-17.06-38.92l-4.58-4.78,8.12-5.41c4.37-2.71,11.44-5.83,15.81-6.46,31.43-5.82,40.38-47.24,14-64.93C458.32,184.14,443.75,184.14,434.18,190.59Zm-1.66,128.83c4.16,9.57,7.49,17.48,7.28,17.69-.62.62-45.16-14.36-47-15.61-.63-.42,2.29-3.54,6.24-6.87,7.7-6.66,23.1-14.78,24.77-13.32C424.19,301.93,428.15,310.05,432.52,319.42ZM378.2,352.3c2.5,3.54,4,7.7,3.33,9.57-1.25,3.54,11.44,18.73,17.48,20.6,3.33,1,29.14,30.18,29.14,32.89,0,.62-4.58-.42-10.2-2.08-12.07-4-17.28-2.92-30.39,6-12.9,8.74-15.19,12.49-11.65,18.73,2.08,4.16,27,21.85,28.09,20,.21-.42,1.88-4.79,3.54-9.78,1.88-5.2,5.62-11.24,8.53-13.32,5.21-4,5.62-4,12.49-.42a64.79,64.79,0,0,0,13.11,5c5.83,1.25,6.45,2.29,8.95,15.61,4.37,21.85,1.25,28.3-24.76,49.32C388.19,535,384,541.26,389,559.57c1.87,6.28,2.71,11.28,2.06,11.28-.41,0-13.11-7.7-28.09-17.07l-26.83-16.93,1.25-37.66c2.5-63.06,4.78-84.5,10.82-101.36,6.66-19.14,21.85-51.82,23.93-51.82C373,346.05,375.7,349,378.2,352.3ZM571.74,490.07c0,23.52-.83,41.21-1.87,40-.83-1-10.4-14.36-20.81-29.76l-19.15-27.89,4.79-5c5.83-6.24,28.3-19.35,33.51-19.35C571.54,448,571.74,451.36,571.74,490.07Zm-85.32-1.67c0,1.46-71.18,89.7-72.84,90.33-1.88.62-4.16-9.79-4.16-19.15,0-17.07,39.75-59.94,63.89-68.89,7.9-2.91,13.11-3.74,13.11-2.29Z" transform="translate(9.07 -0.01)" fill="#211E48"/><path d="M129.51,271.21q-5.79,6.33-11.34,12.89-15-21.51-32.4-44.72C74,223.64,61.61,218.64,52.83,229.82c-6.18,7.85-5.65,20.72-1.7,30.61a40.91,40.91,0,0,0,5,8.7Q75.42,294.75,92,318.3q-4.89,7.05-9.51,14.31Q66.38,309.7,47.64,284.93C37.76,271.8,26.09,267.42,19.18,279c-5.65,9.54-3.33,24.5,1.18,34.62a37.52,37.52,0,0,0,5,8.68q19.05,25,35.47,48.18-4,7.74-7.68,15.73-19.92-28.05-43.7-58.83C2.71,318.65-3.1,311.54-9.07,304.88q3.41-7.11,7-14,5.78,6.63,11.3,13.2l.29-.55C5.76,290.58,3.81,274.71,12.19,261c6.92-11.32,18.38-12.28,28.5-5.73l.23-.31A64.88,64.88,0,0,1,38.56,235c.38-8.58,2.53-15.83,8.34-23,7.79-10.14,27.35-16.08,49,12.65Q113.9,248.83,129.51,271.21Z" transform="translate(9.07 -0.01)" fill="#211E48"/><path d="M183.35,95.7c19.91,45.36.8,83.93-21.26,106.54C136.93,227,110.47,226.19,92.89,187,74.21,145.39,79.75,96.34,106.08,71.41,133.06,45.32,166.74,58.05,183.35,95.7Zm-39.16,99.23c15.12,23.83,37.09,30.48,55.17,17.34,17.65-12.93,22-38.2,6.68-62.58-11.34-18.13-36.82-37.09-59.13-21.49C124.94,144,131.24,174.34,144.19,194.93Z" transform="translate(9.07 -0.01)" fill="#211E48"/><path d="M233.42,116.43c.81-11.83,1.23-21.57,1.3-31q6.43-4.35,12.9-8.46-.23,9.3-.49,18.4l.5-.31c5.24-13.83,13.41-29.18,27-36.75,11.21-6.22,19.19-.58,21.86,11.2l.34-.17a92.75,92.75,0,0,1,10.25-19.49c5.32-7.58,11-13,19-16.18,11-4.81,27.1.62,24.1,39.4q-2.61,32.61-5.65,62.5-7.48,2.55-14.91,5.32,2.91-28.77,5.39-60.06c1.68-21.22-3.36-32.73-15.61-27.56-8.64,3.64-15.91,15.64-19.2,26.9a57.3,57.3,0,0,0-2,10.79q-2.58,34.5-5.7,66-7.32,3.57-14.62,7.45,3-30.65,5.51-64c1.32-17.7-3.62-28.34-15-21.88-9.31,5.33-16.69,20.11-19.76,31.89a50.78,50.78,0,0,0-1.88,10.74q-2.46,33.79-5.42,64.75-7.19,4.62-14.33,9.54Q230.62,158.05,233.42,116.43Z" transform="translate(9.07 -0.01)" fill="#211E48"/><path d="M400,8.5c4.08,5.66,1.39,11-7.3,12.56-7.74,1.38-16.13-2-20-7.72-3.95-5.87-1.46-11.61,6.56-13C387.55-1.15,396.08,2.64,400,8.5ZM373.83,125.67q1.49-44.43.23-97.34,10.32,4,20.72,8.25,1.17,52.82-.38,97.13-10.35-4.2-20.57-8Z" transform="translate(9.07 -0.01)" fill="#211E48"/></svg>